<svg width="317" height="78" viewBox="0 0 317 78" fill="none" xmlns="http://www.w3.org/2000/svg">
<g clip-path="url(#clip0_307_74)">
<path d="M69.7812 12.5312H7.21875C4.56087 12.5312 2.40625 14.6859 2.40625 17.3438V70.2812C2.40625 72.939 4.56087 75.0938 7.21875 75.0938H69.7812C72.439 75.0938 74.5938 72.939 74.5938 70.2812V17.3438C74.5938 14.6859 72.439 12.5312 69.7812 12.5312Z" fill="#FFEAB6" stroke="black" stroke-width="4.8125" stroke-linecap="round" stroke-linejoin="round"/>
<path d="M2.40625 31.7812H74.5937" stroke="black" stroke-width="4.8125" stroke-linecap="round" stroke-linejoin="round"/>
<path d="M21.6562 19.75V2.90625" stroke="black" stroke-width="4.8125" stroke-linecap="round" stroke-linejoin="round"/>
<path d="M55.3438 19.75V2.90625" stroke="black" stroke-width="4.8125" stroke-linecap="round" stroke-linejoin="round"/>
<path d="M18.0469 46.2187C17.3824 46.2187 16.8438 45.6801 16.8438 45.0156C16.8438 44.3512 17.3824 43.8125 18.0469 43.8125" stroke="black" stroke-width="4.8125"/>
<path d="M18.0469 46.2187C18.7114 46.2187 19.25 45.6801 19.25 45.0156C19.25 44.3512 18.7114 43.8125 18.0469 43.8125" stroke="black" stroke-width="4.8125"/>
<path d="M18.0469 63.0625C17.3824 63.0625 16.8438 62.5238 16.8438 61.8594C16.8438 61.1949 17.3824 60.6562 18.0469 60.6562" stroke="black" stroke-width="4.8125"/>
<path d="M18.0469 63.0625C18.7114 63.0625 19.25 62.5238 19.25 61.8594C19.25 61.1949 18.7114 60.6562 18.0469 60.6562" stroke="black" stroke-width="4.8125"/>
<path d="M58.9531 46.2187C58.2887 46.2187 57.75 45.6801 57.75 45.0156C57.75 44.3512 58.2887 43.8125 58.9531 43.8125" stroke="black" stroke-width="4.8125"/>
<path d="M58.9531 46.2187C59.6176 46.2187 60.1562 45.6801 60.1562 45.0156C60.1562 44.3512 59.6176 43.8125 58.9531 43.8125" stroke="black" stroke-width="4.8125"/>
<path d="M58.9531 63.0625C58.2887 63.0625 57.75 62.5238 57.75 61.8594C57.75 61.1949 58.2887 60.6562 58.9531 60.6562" stroke="black" stroke-width="4.8125"/>
<path d="M58.9531 63.0625C59.6176 63.0625 60.1562 62.5238 60.1562 61.8594C60.1562 61.1949 59.6176 60.6562 58.9531 60.6562" stroke="black" stroke-width="4.8125"/>
<path d="M41.8615 49.3153C41.8142 48.7945 41.6035 48.3897 41.2294 48.1009C40.8601 47.8073 40.3321 47.6605 39.6456 47.6605C39.1911 47.6605 38.8123 47.7197 38.5092 47.8381C38.2062 47.9564 37.9789 48.1198 37.8274 48.3281C37.6759 48.5317 37.5978 48.7661 37.593 49.0312C37.5836 49.2491 37.6262 49.4408 37.7209 49.6065C37.8203 49.7723 37.9624 49.919 38.147 50.0469C38.3364 50.17 38.5637 50.2789 38.8288 50.3736C39.094 50.4683 39.3923 50.5511 39.7237 50.6222L40.9737 50.9062C41.6934 51.0625 42.3279 51.2708 42.8771 51.5312C43.4311 51.7917 43.8951 52.1018 44.2692 52.4616C44.648 52.8215 44.9344 53.2358 45.1286 53.7045C45.3227 54.1733 45.4221 54.6989 45.4268 55.2812C45.4221 56.1998 45.1901 56.9882 44.7308 57.6463C44.2715 58.3045 43.611 58.8087 42.7493 59.1591C41.8923 59.5095 40.8577 59.6847 39.6456 59.6847C38.4287 59.6847 37.3681 59.5024 36.4638 59.1378C35.5594 58.7732 34.8563 58.2192 34.3544 57.4759C33.8525 56.7325 33.5945 55.7926 33.5803 54.6562H36.9467C36.9751 55.125 37.1006 55.5156 37.3232 55.8281C37.5457 56.1406 37.8511 56.3774 38.2393 56.5384C38.6323 56.6993 39.0869 56.7798 39.603 56.7798C40.0765 56.7798 40.4789 56.7159 40.8104 56.5881C41.1465 56.4602 41.4046 56.2827 41.5845 56.0554C41.7644 55.8281 41.8568 55.5677 41.8615 55.2741C41.8568 54.9995 41.7715 54.7652 41.6058 54.571C41.4401 54.3722 41.1844 54.2017 40.8388 54.0597C40.4979 53.9129 40.0623 53.7779 39.532 53.6548L38.0121 53.2997C36.7526 53.0109 35.7607 52.5445 35.0362 51.9006C34.3118 51.2519 33.9519 50.3759 33.9567 49.2727C33.9519 48.3731 34.1934 47.5848 34.6811 46.9077C35.1688 46.2306 35.8435 45.7027 36.7053 45.3239C37.567 44.9451 38.5495 44.7557 39.6527 44.7557C40.7796 44.7557 41.7573 44.9474 42.5859 45.331C43.4193 45.7098 44.0656 46.2424 44.5249 46.929C44.9841 47.6155 45.2185 48.411 45.228 49.3153H41.8615Z" fill="black"/>
</g>
<path d="M106.884 48.568C107.588 48.568 108.174 48.472 108.644 48.28C109.134 48.088 109.497 47.8 109.732 47.416C109.988 47.032 110.116 46.552 110.116 45.976C110.116 45.4853 109.977 45.0693 109.7 44.728C109.444 44.3867 109.06 44.0987 108.548 43.864C108.057 43.608 107.449 43.3627 106.724 43.128C106.02 42.8933 105.23 42.648 104.356 42.392C103.524 42.136 102.724 41.8267 101.956 41.464C101.188 41.1013 100.484 40.632 99.8436 40.056C99.225 39.48 98.7343 38.776 98.3716 37.944C98.0303 37.112 97.8596 36.1093 97.8596 34.936C97.8596 33.4427 98.2223 32.184 98.9476 31.16C99.673 30.1147 100.633 29.3253 101.828 28.792C103.044 28.2373 104.366 27.96 105.796 27.96C107.033 27.96 108.11 28.1307 109.028 28.472C109.945 28.792 110.724 29.336 111.364 30.104C112.025 30.8507 112.58 31.8533 113.028 33.112L111.236 32.792L111.94 28.28H114.404V34.328H111.492C111.257 33.5387 110.894 32.8773 110.404 32.344C109.913 31.7893 109.348 31.384 108.708 31.128C108.089 30.8507 107.396 30.712 106.628 30.712C106.009 30.712 105.476 30.808 105.028 31C104.601 31.1707 104.27 31.4267 104.036 31.768C103.822 32.088 103.716 32.4827 103.716 32.952C103.716 33.4213 103.844 33.8267 104.1 34.168C104.377 34.488 104.75 34.7653 105.22 35C105.71 35.2133 106.276 35.4053 106.916 35.576C107.556 35.7467 108.249 35.9387 108.996 36.152C109.956 36.3867 110.852 36.6853 111.684 37.048C112.537 37.4107 113.294 37.8693 113.956 38.424C114.617 38.9787 115.14 39.672 115.524 40.504C115.908 41.3147 116.1 42.3067 116.1 43.48C116.1 45.0373 115.758 46.4133 115.076 47.608C114.414 48.7813 113.444 49.6987 112.164 50.36C110.884 51 109.326 51.32 107.492 51.32C106.233 51.32 105.038 51.1387 103.908 50.776C102.798 50.392 101.806 49.7627 100.932 48.888C100.057 48.0133 99.353 46.8293 98.8196 45.336L100.644 45.752L100.004 51H97.3476V43.864H100.516C100.9 44.8667 101.422 45.72 102.084 46.424C102.745 47.128 103.492 47.6613 104.324 48.024C105.177 48.3867 106.03 48.568 106.884 48.568ZM128.975 48.568C129.658 48.568 130.266 48.3973 130.799 48.056C131.333 47.6933 131.791 47.256 132.175 46.744C132.559 46.2107 132.879 45.6987 133.135 45.208L135.215 46.648C134.767 47.5653 134.213 48.376 133.551 49.08C132.911 49.784 132.111 50.3387 131.151 50.744C130.213 51.128 129.071 51.32 127.727 51.32C125.914 51.32 124.293 50.9893 122.863 50.328C121.434 49.6453 120.303 48.664 119.471 47.384C118.639 46.104 118.223 44.568 118.223 42.776C118.223 40.984 118.629 39.4587 119.439 38.2C120.25 36.92 121.381 35.9387 122.831 35.256C124.282 34.5733 125.999 34.232 127.983 34.232C129.285 34.232 130.394 34.3493 131.311 34.584C132.229 34.7973 132.986 35.0533 133.583 35.352C134.181 35.6293 134.597 35.8747 134.831 36.088V40.504H129.839V36.248C130.138 36.2693 130.362 36.3547 130.511 36.504C130.682 36.6533 130.789 36.824 130.831 37.016C130.895 37.208 130.895 37.4 130.831 37.592C130.767 37.784 130.65 37.9227 130.479 38.008C130.266 37.688 129.989 37.432 129.647 37.24C129.327 37.0267 128.911 36.92 128.399 36.92C127.738 36.92 127.173 37.144 126.703 37.592C126.234 38.04 125.871 38.712 125.615 39.608C125.359 40.4827 125.231 41.5387 125.231 42.776C125.231 43.7147 125.317 44.5467 125.487 45.272C125.658 45.976 125.903 46.5733 126.223 47.064C126.543 47.5547 126.927 47.928 127.375 48.184C127.845 48.44 128.378 48.568 128.975 48.568ZM144.849 27.448V48.568C144.849 48.632 144.913 48.696 145.041 48.76C145.169 48.8027 145.318 48.8347 145.489 48.856C145.681 48.856 145.852 48.856 146.001 48.856H146.097V51H136.593V48.856H136.625C136.881 48.856 137.116 48.8347 137.329 48.792C137.542 48.728 137.702 48.632 137.809 48.504C137.937 48.376 138.001 48.2053 138.001 47.992V30.68C138.001 30.4667 137.958 30.3067 137.873 30.2C137.809 30.0933 137.692 30.008 137.521 29.944C137.35 29.8587 137.126 29.784 136.849 29.72L136.593 29.656V27.448H144.849ZM157.233 51H147.761V48.856H147.793C147.942 48.856 148.113 48.856 148.305 48.856C148.497 48.8347 148.657 48.8027 148.785 48.76C148.913 48.7173 148.977 48.664 148.977 48.6V39.672C148.977 39.2453 148.924 38.8933 148.817 38.616C148.732 38.3387 148.582 38.1253 148.369 37.976C148.177 37.8267 147.9 37.752 147.537 37.752C147.11 37.752 146.694 37.9013 146.289 38.2C145.905 38.4773 145.532 38.8933 145.169 39.448C144.828 40.0027 144.497 40.696 144.177 41.528L144.145 38.296C144.486 37.464 144.945 36.7493 145.521 36.152C146.118 35.5333 146.822 35.064 147.633 34.744C148.444 34.4027 149.329 34.232 150.289 34.232C151.42 34.232 152.39 34.456 153.201 34.904C154.033 35.3307 154.673 35.96 155.121 36.792C155.59 37.624 155.825 38.6587 155.825 39.896V47.992C155.825 48.2053 155.889 48.376 156.017 48.504C156.145 48.632 156.305 48.728 156.497 48.792C156.71 48.8347 156.934 48.856 157.169 48.856H157.233V51ZM165.291 42.84C165.291 43.7573 165.355 44.568 165.483 45.272C165.632 45.976 165.856 46.5733 166.155 47.064C166.475 47.5547 166.88 47.9173 167.371 48.152C167.883 48.3867 168.502 48.504 169.227 48.504C169.952 48.504 170.571 48.3653 171.083 48.088C171.616 47.8107 172.075 47.448 172.459 47C172.864 46.552 173.195 46.0933 173.451 45.624L175.627 47.064C175.2 47.896 174.646 48.6427 173.963 49.304C173.302 49.944 172.48 50.4453 171.499 50.808C170.539 51.1493 169.387 51.32 168.043 51.32C166.08 51.32 164.374 50.9787 162.923 50.296C161.472 49.6133 160.352 48.632 159.563 47.352C158.795 46.072 158.411 44.5573 158.411 42.808C158.411 41.1013 158.795 39.608 159.563 38.328C160.352 37.0267 161.43 36.024 162.795 35.32C164.182 34.5947 165.739 34.232 167.467 34.232C168.854 34.232 170.07 34.4347 171.115 34.84C172.182 35.2453 173.078 35.8427 173.803 36.632C174.528 37.4213 175.072 38.4133 175.435 39.608C175.798 40.8027 175.99 42.1893 176.011 43.768H164.427V41.336H170.411L169.739 42.328C169.718 41.24 169.664 40.344 169.579 39.64C169.494 38.936 169.366 38.392 169.195 38.008C169.046 37.6027 168.832 37.3253 168.555 37.176C168.299 37.0053 167.99 36.92 167.627 36.92C167.264 36.92 166.934 37.0267 166.635 37.24C166.358 37.432 166.112 37.7627 165.899 38.232C165.707 38.7013 165.558 39.3093 165.451 40.056C165.344 40.8027 165.291 41.7307 165.291 42.84ZM196.542 47.832C196.542 48.1307 196.638 48.3333 196.83 48.44C197.043 48.5467 197.352 48.6427 197.758 48.728L197.95 48.76V51H190.11V47.16L189.694 47.512V30.68C189.694 30.488 189.64 30.3387 189.534 30.232C189.448 30.104 189.31 30.008 189.118 29.944C188.926 29.8587 188.691 29.784 188.414 29.72L188.158 29.656V27.448H196.542V47.832ZM185.182 34.232C186.184 34.232 187.059 34.392 187.806 34.712C188.574 35.032 189.224 35.512 189.758 36.152C190.312 36.792 190.782 37.592 191.166 38.552L191.038 41.72C190.568 40.76 190.152 39.9707 189.79 39.352C189.427 38.712 189.043 38.2427 188.638 37.944C188.254 37.624 187.795 37.464 187.262 37.464C186.792 37.464 186.398 37.592 186.078 37.848C185.758 38.0827 185.491 38.4453 185.278 38.936C185.064 39.4053 184.904 39.9813 184.798 40.664C184.691 41.3467 184.638 42.1253 184.638 43C184.638 43.832 184.68 44.568 184.766 45.208C184.872 45.8267 185.022 46.36 185.214 46.808C185.427 47.2347 185.683 47.5547 185.982 47.768C186.28 47.9813 186.632 48.088 187.038 48.088C187.55 48.088 187.998 47.9173 188.382 47.576C188.766 47.2347 189.16 46.712 189.566 46.008C189.992 45.2827 190.472 44.3547 191.006 43.224L191.134 46.52C190.622 47.5867 190.078 48.472 189.502 49.176C188.947 49.88 188.307 50.4133 187.582 50.776C186.856 51.1387 185.971 51.32 184.926 51.32C183.454 51.32 182.174 50.9787 181.086 50.296C179.998 49.592 179.144 48.6213 178.526 47.384C177.928 46.1253 177.63 44.664 177.63 43C177.63 41.272 177.95 39.7573 178.59 38.456C179.23 37.1333 180.115 36.0987 181.246 35.352C182.398 34.6053 183.71 34.232 185.182 34.232ZM207.063 34.552V45.784C207.063 46.232 207.106 46.6053 207.191 46.904C207.298 47.2027 207.447 47.4267 207.639 47.576C207.853 47.7253 208.13 47.8 208.471 47.8C208.877 47.8 209.261 47.6827 209.623 47.448C209.986 47.192 210.338 46.7867 210.679 46.232C211.042 45.6773 211.394 44.952 211.735 44.056L211.799 47.256C211.415 48.152 210.914 48.8987 210.295 49.496C209.698 50.0933 209.005 50.552 208.215 50.872C207.447 51.1707 206.615 51.32 205.719 51.32C204.61 51.32 203.639 51.1067 202.807 50.68C201.975 50.2533 201.335 49.6133 200.887 48.76C200.439 47.9067 200.215 46.872 200.215 45.656V37.816C200.215 37.5173 200.119 37.304 199.927 37.176C199.757 37.048 199.469 36.9413 199.063 36.856L198.807 36.792V34.552H207.063ZM217.911 34.552V47.832C217.911 48.024 217.954 48.184 218.039 48.312C218.125 48.4187 218.253 48.504 218.423 48.568C218.615 48.6107 218.85 48.664 219.127 48.728L219.319 48.76V51H211.479V47.224L211.063 47.512V37.816C211.063 37.5173 210.914 37.304 210.615 37.176C210.338 37.0267 209.986 36.92 209.559 36.856L209.143 36.792V34.552H217.911ZM228.63 27.448V47.992C228.63 48.3333 228.758 48.568 229.014 48.696C229.291 48.8027 229.622 48.856 230.006 48.856H230.038V51H220.406V48.856H220.438C220.822 48.856 221.142 48.8027 221.398 48.696C221.654 48.568 221.782 48.3333 221.782 47.992V30.68C221.782 30.4667 221.739 30.3067 221.654 30.2C221.59 30.0933 221.472 30.008 221.302 29.944C221.131 29.8587 220.907 29.784 220.63 29.72L220.374 29.656V27.448H228.63ZM250.581 42.776C250.581 44.4613 250.197 45.9547 249.429 47.256C248.661 48.536 247.552 49.5387 246.101 50.264C244.672 50.968 242.954 51.32 240.949 51.32C238.986 51.32 237.28 50.968 235.829 50.264C234.378 49.5387 233.258 48.536 232.469 47.256C231.701 45.9547 231.317 44.4613 231.317 42.776C231.317 41.496 231.541 40.3333 231.989 39.288C232.437 38.2427 233.077 37.3467 233.909 36.6C234.762 35.8533 235.776 35.2773 236.949 34.872C238.144 34.4453 239.477 34.232 240.949 34.232C242.442 34.232 243.776 34.4453 244.949 34.872C246.144 35.2773 247.157 35.8533 247.989 36.6C248.842 37.3467 249.482 38.2427 249.909 39.288C250.357 40.3333 250.581 41.496 250.581 42.776ZM238.325 42.776C238.325 44.12 238.421 45.24 238.613 46.136C238.826 47.0107 239.125 47.6613 239.509 48.088C239.893 48.5147 240.373 48.728 240.949 48.728C241.546 48.728 242.037 48.5147 242.421 48.088C242.805 47.6613 243.093 47.0107 243.285 46.136C243.498 45.24 243.605 44.12 243.605 42.776C243.605 41.4107 243.498 40.3013 243.285 39.448C243.093 38.5947 242.805 37.9653 242.421 37.56C242.037 37.1333 241.546 36.92 240.949 36.92C240.373 36.92 239.893 37.1333 239.509 37.56C239.125 37.9653 238.826 38.5947 238.613 39.448C238.421 40.3013 238.325 41.4107 238.325 42.776Z" fill="black"/>
<defs>
<clipPath id="clip0_307_74">
<rect width="77" height="77" fill="white" transform="translate(0 0.5)"/>
</clipPath>
</defs>
</svg>
